<svg xmlns="http://www.w3.org/2000/svg" width="128" height="128" viewBox="0 0 128 128">
  <defs>
    <linearGradient id="musicGradient" x1="0%" y1="0%" x2="100%" y2="100%">
      <stop offset="0%" style="stop-color:#007ACC;stop-opacity:1" />
      <stop offset="100%" style="stop-color:#005999;stop-opacity:1" />
    </linearGradient>
  </defs>
  
  <!-- Background circle -->
  <circle cx="64" cy="64" r="60" fill="url(#musicGradient)" stroke="#003d66" stroke-width="2"/>
  
  <!-- Music note -->
  <path d="M45 85 C45 88.314 42.314 91 39 91 C35.686 91 33 88.314 33 85 C33 81.686 35.686 79 39 79 C42.314 79 45 81.686 45 85 Z" fill="white"/>
  <path d="M75 75 C75 78.314 72.314 81 69 81 C65.686 81 63 78.314 63 75 C63 71.686 65.686 69 69 69 C72.314 69 75 71.686 75 75 Z" fill="white"/>
  <rect x="43" y="45" width="4" height="40" fill="white"/>
  <rect x="73" y="35" width="4" height="40" fill="white"/>
  <path d="M47 45 Q55 40 75 45 L75 35 Q55 30 47 35 Z" fill="white"/>
  
  <!-- Sound waves -->
  <path d="M85 50 Q90 55 90 64 Q90 73 85 78" stroke="white" stroke-width="2" fill="none" opacity="0.7"/>
  <path d="M90 45 Q98 52 98 64 Q98 76 90 83" stroke="white" stroke-width="2" fill="none" opacity="0.5"/>
</svg>